<?xml version="1.0" encoding="UTF-8"?>
<svg width="25px" height="24px" viewBox="0 0 25 24" xmlns="http://www.w3.org/2000/svg" xmlns:xlink="http://www.w3.org/1999/xlink" version="1.1">
 <!-- Generated by Pixelmator Pro 2.0.4 -->
 <g id="group">
  <path id="Traçado" d="M1.265 6.139 L4.05 6.139 4.05 6.948 1.265 6.948 Z" fill="#ffffff" fill-opacity="1" stroke="none"/>
  <path id="Traçado-1" d="M14.614 4.389 C14.621 4.343 14.625 4.297 14.625 4.25 14.625 3.686 14.164 3.231 13.598 3.231 13.03 3.231 12.571 3.688 12.571 4.25 12.571 4.331 12.582 4.409 12.599 4.486 13.269 4.447 13.942 4.413 14.614 4.389 Z" fill="#ffffff" fill-opacity="1" stroke="none"/>
  <path id="Traçado-2" d="M12.139 4.511 C12.16 4.428 12.174 4.34 12.174 4.25 12.174 3.686 11.713 3.231 11.147 3.231 10.579 3.231 10.12 3.688 10.12 4.25 10.12 4.378 10.144 4.501 10.187 4.613 10.838 4.584 11.488 4.549 12.139 4.511 Z" fill="#ffffff" fill-opacity="1" stroke="none"/>
  <path id="Traçado-3" d="M9.554 4.638 C9.605 4.518 9.632 4.387 9.632 4.25 9.632 3.686 9.171 3.231 8.605 3.231 8.037 3.231 7.577 3.688 7.577 4.25 7.577 4.398 7.61 4.537 7.667 4.664 8.296 4.672 8.925 4.66 9.554 4.638 Z" fill="#ffffff" fill-opacity="1" stroke="none"/>
  <path id="Traçado-4" d="M18.039 1.516 C17.876 1.276 17.966 0.934 18.179 0.756 17.671 0.511 17.106 0.372 16.515 0.372 L14.405 0.372 C11.208 0.372 8.01 0.371 4.813 0.375 4.235 0.376 3.698 0.492 3.204 0.72 3.3 0.76 3.387 0.829 3.455 0.917 3.579 1.076 3.663 1.259 3.719 1.451 4.06 1.316 4.425 1.247 4.814 1.247 6.788 1.244 8.764 1.244 10.739 1.244 L14.402 1.244 16.512 1.244 C17.132 1.244 17.715 1.441 18.2 1.774 18.149 1.685 18.096 1.599 18.039 1.516 Z" fill="#ffffff" fill-opacity="1" stroke="none"/>
  <path id="Traçado-5" d="M19.535 4.534 C19.677 4.497 19.825 4.474 19.982 4.474 20.128 4.474 20.273 4.497 20.414 4.536 L20.414 4.244 C20.414 3.92 20.371 3.604 20.292 3.301 20.163 3.454 19.959 3.539 19.707 3.465 19.59 3.431 19.484 3.386 19.386 3.332 19.482 3.622 19.535 3.928 19.535 4.244 Z" fill="#ffffff" fill-opacity="1" stroke="none"/>
  <path id="Traçado-6" d="M1.126 16.812 C1.14 16.795 1.155 16.778 1.171 16.762 1.349 16.586 1.677 16.532 1.899 16.664 1.822 16.396 1.783 16.115 1.783 15.828 L1.783 4.321 C1.783 4.124 1.799 3.936 1.829 3.754 1.66 3.836 1.463 3.849 1.291 3.732 1.173 3.651 1.071 3.557 0.99 3.45 0.932 3.728 0.901 4.018 0.901 4.321 L0.901 15.828 C0.901 16.15 0.94 16.467 1.016 16.773 1.056 16.782 1.091 16.796 1.126 16.812 Z" fill="#ffffff" fill-opacity="1" stroke="none"/>
  <path id="Traçado-7" d="M4.702 19.119 C4.702 19.031 4.712 18.944 4.728 18.858 4.414 18.847 4.109 18.791 3.821 18.69 3.851 18.882 3.785 19.096 3.655 19.226 3.53 19.35 3.378 19.4 3.224 19.393 3.72 19.614 4.261 19.733 4.821 19.735 4.745 19.549 4.702 19.343 4.702 19.119 Z" fill="#ffffff" fill-opacity="1" stroke="none"/>
  <path id="Traçado-8" d="M19.42 3.921 C18.33 3.921 17.444 3.042 17.444 1.96 17.444 0.879 18.33 0 19.42 0 20.51 0 21.395 0.879 21.395 1.96 21.395 3.042 20.51 3.921 19.42 3.921 Z M19.42 0.743 C18.743 0.743 18.193 1.289 18.193 1.96 18.193 2.632 18.743 3.178 19.42 3.178 20.096 3.178 20.647 2.632 20.647 1.96 20.647 1.289 20.096 0.743 19.42 0.743 Z" fill="#ffffff" fill-opacity="1" stroke="none"/>
  <path id="Traçado-9" d="M2.111 20.164 C1.022 20.164 0.136 19.285 0.136 18.204 0.136 17.122 1.022 16.243 2.111 16.243 3.201 16.243 4.087 17.122 4.087 18.204 4.087 19.285 3.201 20.164 2.111 20.164 Z M2.111 16.986 C1.435 16.986 0.885 17.532 0.885 18.204 0.885 18.875 1.435 19.421 2.111 19.421 2.788 19.421 3.338 18.875 3.338 18.204 3.338 17.532 2.788 16.986 2.111 16.986 Z" fill="#ffffff" fill-opacity="1" stroke="none"/>
  <path id="Traçado-10" d="M2.111 3.921 C1.022 3.921 0.136 3.042 0.136 1.96 0.136 0.879 1.022 0 2.111 0 3.201 0 4.087 0.879 4.087 1.96 4.087 3.042 3.201 3.921 2.111 3.921 Z M2.111 0.743 C1.435 0.743 0.885 1.289 0.885 1.96 0.885 2.632 1.435 3.178 2.111 3.178 2.788 3.178 3.338 2.632 3.338 1.96 3.338 1.289 2.788 0.743 2.111 0.743 Z" fill="#ffffff" fill-opacity="1" stroke="none"/>
  <path id="Traçado-11" d="M21.659 5.252 C21.496 5.012 21.586 4.671 21.799 4.493 21.291 4.247 20.726 4.108 20.135 4.108 L18.024 4.108 C14.827 4.108 11.629 4.107 8.432 4.111 7.838 4.112 7.288 4.235 6.783 4.475 7.027 4.472 7.276 4.626 7.276 4.939 L7.276 5.214 C7.635 5.063 8.02 4.985 8.433 4.983 10.409 4.981 12.385 4.981 14.361 4.981 L18.024 4.981 20.135 4.981 C20.754 4.981 21.337 5.178 21.822 5.511 21.77 5.422 21.716 5.335 21.659 5.252 Z" fill="#ffffff" fill-opacity="1" stroke="none"/>
  <path id="Traçado-12" d="M23.155 8.628 C23.155 12.283 23.155 15.938 23.154 19.595 23.154 19.9 23.109 20.191 23.022 20.467 23.053 20.442 23.084 20.418 23.117 20.392 23.365 20.192 23.705 20.147 23.954 20.382 24.007 20.128 24.034 19.866 24.034 19.595 24.035 15.94 24.035 12.283 24.035 8.628 L24.035 7.982 C24.035 7.657 23.992 7.342 23.913 7.038 23.784 7.192 23.58 7.277 23.327 7.203 23.211 7.169 23.105 7.123 23.007 7.069 23.103 7.359 23.156 7.665 23.156 7.982 L23.156 8.628 Z" fill="#ffffff" fill-opacity="1" stroke="none"/>
  <path id="Traçado-13" d="M4.747 20.548 C4.761 20.531 4.776 20.515 4.792 20.498 4.97 20.322 5.298 20.268 5.52 20.4 5.443 20.132 5.404 19.851 5.404 19.564 L5.404 8.058 C5.404 7.861 5.42 7.672 5.45 7.49 5.281 7.572 5.084 7.586 4.912 7.468 4.793 7.387 4.692 7.293 4.611 7.187 4.553 7.464 4.522 7.754 4.522 8.058 L4.522 19.564 C4.522 19.886 4.561 20.203 4.637 20.509 4.675 20.519 4.712 20.532 4.747 20.548 Z" fill="#ffffff" fill-opacity="1" stroke="none"/>
  <path id="Traçado-14" d="M21.762 22.114 C21.762 22.111 21.764 22.108 21.765 22.106 21.264 22.436 20.705 22.598 20.068 22.598 L8.461 22.598 C8.107 22.598 7.764 22.538 7.439 22.425 7.469 22.617 7.404 22.83 7.273 22.96 7.148 23.084 6.996 23.134 6.842 23.128 7.344 23.351 7.893 23.47 8.461 23.47 L20.067 23.47 C20.852 23.47 21.568 23.265 22.201 22.862 21.898 22.788 21.689 22.424 21.762 22.114 Z" fill="#ffffff" fill-opacity="1" stroke="none"/>
  <path id="Traçado-15" d="M18.024 7.135 C18.024 7.698 17.565 8.155 16.997 8.155 16.43 8.155 15.97 7.698 15.97 7.135 15.97 6.572 16.43 6.116 16.997 6.116 17.565 6.116 18.024 6.572 18.024 7.135 Z" fill="#ffffff" fill-opacity="1" stroke="none"/>
  <path id="Traçado-16" d="M15.575 7.135 C15.575 7.698 15.115 8.155 14.548 8.155 13.98 8.155 13.52 7.698 13.52 7.135 13.52 6.572 13.98 6.116 14.548 6.116 15.115 6.116 15.575 6.572 15.575 7.135 Z" fill="#ffffff" fill-opacity="1" stroke="none"/>
  <path id="Traçado-17" d="M13.033 7.135 C13.033 7.698 12.573 8.155 12.005 8.155 11.438 8.155 10.978 7.698 10.978 7.135 10.978 6.572 11.438 6.116 12.005 6.116 12.573 6.116 13.033 6.572 13.033 7.135 Z" fill="#ffffff" fill-opacity="1" stroke="none"/>
  <path id="Traçado-18" d="M5.114 9.05 L23.596 9.05 23.596 10.081 5.114 10.081 Z" fill="#ffffff" fill-opacity="1" stroke="none"/>
  <path id="Traçado-19" d="M7.598 11.597 C7.356 11.597 7.16 11.791 7.16 12.031 L7.16 16.133 C7.16 16.373 7.356 16.567 7.598 16.567 L21.062 16.567 C21.304 16.567 21.5 16.373 21.5 16.133 L21.5 12.03 C21.5 11.79 21.304 11.596 21.062 11.596 L16.293 11.596 C16.052 11.596 15.856 11.79 15.856 12.03 15.856 12.27 16.052 12.464 16.293 12.464 L20.626 12.464 20.626 15.698 8.035 15.698 8.035 12.464 12.368 12.464 C12.61 12.464 12.806 12.27 12.806 12.03 12.806 11.79 12.61 11.596 12.368 11.596 L7.598 11.596 Z" fill="#ffffff" fill-opacity="1" stroke="none"/>
  <path id="Traçado-20" d="M13.893 12.03 C13.893 12.27 14.09 12.464 14.332 12.464 14.573 12.464 14.769 12.27 14.769 12.03 14.769 11.79 14.573 11.596 14.332 11.596 L14.329 11.596 C14.087 11.597 13.893 11.791 13.893 12.03 Z" fill="#ffffff" fill-opacity="1" stroke="none"/>
  <path id="Traçado-21" d="M7.16 17.799 L21.235 17.799 21.235 18.831 7.16 18.831 Z" fill="#ffffff" fill-opacity="1" stroke="none"/>
  <g id="group-1">
   <g id="group-2">
    <g id="group-3">
     <path id="Traçado-22" d="M23.041 23.9 C21.951 23.9 21.065 23.021 21.065 21.94 21.065 20.858 21.951 19.979 23.041 19.979 24.13 19.979 25.016 20.858 25.016 21.94 25.016 23.021 24.13 23.9 23.041 23.9 Z M23.041 20.722 C22.364 20.722 21.814 21.268 21.814 21.94 21.814 22.611 22.364 23.157 23.041 23.157 23.717 23.157 24.268 22.611 24.268 21.94 24.268 21.268 23.717 20.722 23.041 20.722 Z" fill="#ffffff" fill-opacity="1" stroke="none"/>
    </g>
   </g>
  </g>
  <g id="group-4">
   <g id="group-5">
    <g id="group-6">
     <path id="Traçado-23" d="M23.041 7.657 C21.951 7.657 21.065 6.778 21.065 5.697 21.065 4.615 21.951 3.736 23.041 3.736 24.13 3.736 25.016 4.615 25.016 5.697 25.016 6.778 24.13 7.657 23.041 7.657 Z M23.041 4.479 C22.364 4.479 21.814 5.025 21.814 5.697 21.814 6.368 22.364 6.914 23.041 6.914 23.717 6.914 24.268 6.368 24.268 5.697 24.268 5.025 23.717 4.479 23.041 4.479 Z" fill="#ffffff" fill-opacity="1" stroke="none"/>
    </g>
   </g>
  </g>
  <g id="group-7">
   <g id="group-8">
    <g id="group-9">
     <path id="Traçado-24" d="M5.732 24.305 C4.643 24.305 3.757 23.426 3.757 22.344 3.757 21.263 4.643 20.384 5.732 20.384 6.822 20.384 7.708 21.263 7.708 22.344 7.708 23.426 6.821 24.305 5.732 24.305 Z M5.732 21.127 C5.056 21.127 4.505 21.673 4.505 22.344 4.505 23.016 5.056 23.562 5.732 23.562 6.409 23.562 6.959 23.016 6.959 22.344 6.959 21.673 6.409 21.127 5.732 21.127 Z" fill="#ffffff" fill-opacity="1" stroke="none"/>
    </g>
   </g>
  </g>
  <g id="group-10">
   <g id="group-11">
    <g id="group-12">
     <path id="Traçado-25" d="M5.868 7.792 C4.779 7.792 3.893 6.913 3.893 5.831 3.893 4.75 4.779 3.871 5.868 3.871 6.958 3.871 7.844 4.75 7.844 5.831 7.844 6.913 6.957 7.792 5.868 7.792 Z M5.868 4.614 C5.192 4.614 4.641 5.16 4.641 5.831 4.641 6.503 5.192 7.049 5.868 7.049 6.545 7.049 7.095 6.503 7.095 5.831 7.095 5.16 6.545 4.614 5.868 4.614 Z" fill="#ffffff" fill-opacity="1" stroke="none"/>
    </g>
   </g>
  </g>
 </g>
</svg>
