<?xml version="1.0" encoding="utf-8"?>
<!-- Generator: Adobe Illustrator 24.1.0, SVG Export Plug-In . SVG Version: 6.00 Build 0)  -->
<svg version="1.1" id="Camada_1" xmlns="http://www.w3.org/2000/svg" xmlns:xlink="http://www.w3.org/1999/xlink" x="0px" y="0px"
	 viewBox="0 0 590.67 177.26" style="enable-background:new 0 0 590.67 177.26;" xml:space="preserve">
<style type="text/css">
	.st0{fill:#02002E;}
	.st1{fill:#D1D1D1;}
	.st2{fill:#2397E9;}
	.st3{fill:#F96C00;}
	.st4{fill:#FFFFFF;}
</style>
<g>
	<g>
		<path class="st4" d="M198.81,84.96c0-13.62,10.42-23.28,24.62-23.28c8.25,0,14.9,3.01,19.25,8.44l-8.06,7.29
			c-2.81-3.39-6.27-5.24-10.55-5.24c-7.35,0-12.47,5.12-12.47,12.79s5.12,12.79,12.47,12.79c4.28,0,7.74-1.85,10.55-5.24l8.06,7.29
			c-4.35,5.44-11,8.44-19.25,8.44C209.23,108.24,198.81,98.59,198.81,84.96z"/>
		<path class="st4" d="M248.3,62.58h12.66v34.72h21.36v10.04H248.3V62.58z"/>
		<path class="st4" d="M284.3,84.96c0-13.43,10.55-23.28,24.88-23.28c14.32,0,24.88,9.85,24.88,23.28
			c0,13.43-10.55,23.28-24.88,23.28C294.85,108.24,284.3,98.39,284.3,84.96z M321.27,84.96c0-7.74-5.31-12.79-12.09-12.79
			c-6.78,0-12.09,5.05-12.09,12.79s5.31,12.79,12.09,12.79C315.96,97.75,321.27,92.7,321.27,84.96z"/>
		<path class="st4" d="M383.29,62.58v44.76h-10.42l-19.76-23.85v23.85H340.7V62.58h10.42l19.76,23.85V62.58H383.29z"/>
		<path class="st4" d="M422.24,98.65h-18.93l-3.52,8.7h-12.92l19.76-44.76h12.47l19.82,44.76h-13.17L422.24,98.65z M418.53,89.31
			l-5.76-14.32l-5.75,14.32H418.53z"/>
		<path class="st4" d="M442.51,62.58h21.17c14.84,0,25,8.63,25,22.38s-10.17,22.38-25,22.38h-21.17V62.58z M463.16,97.24
			c7.61,0,12.73-4.54,12.73-12.28s-5.12-12.28-12.73-12.28h-7.99v24.56H463.16z"/>
		<path class="st4" d="M493.03,84.96c0-13.43,10.55-23.28,24.88-23.28c14.32,0,24.88,9.85,24.88,23.28
			c0,13.43-10.55,23.28-24.88,23.28C503.58,108.24,493.03,98.39,493.03,84.96z M529.99,84.96c0-7.74-5.31-12.79-12.09-12.79
			s-12.09,5.05-12.09,12.79s5.31,12.79,12.09,12.79S529.99,92.7,529.99,84.96z"/>
		<path class="st4" d="M569,95.45h-6.91v11.89h-12.66V62.58h20.46c12.21,0,19.89,6.33,19.89,16.56c0,6.59-3.2,11.45-8.76,14.13
			l9.66,14.07h-13.56L569,95.45z M569.12,72.56h-7.03v13.11h7.03c5.24,0,7.87-2.43,7.87-6.52
			C576.99,74.99,574.37,72.56,569.12,72.56z"/>
	</g>
	<g>
		<path class="st4" d="M206.67,124.92h10.71c7.95,0,13.37,4.9,13.37,12.25c0,7.35-5.43,12.25-13.37,12.25h-10.71V124.92z
			 M217.17,145.57c5.46,0,9-3.33,9-8.4c0-5.08-3.54-8.4-9-8.4h-5.95v16.8H217.17z"/>
		<path class="st4" d="M271.46,145.61v3.82h-18.38v-24.5h17.89v3.82h-13.34v6.37h11.83v3.75h-11.83v6.76H271.46z"/>
		<path class="st4" d="M341.72,133.64c0,5.39-3.99,8.72-10.43,8.72h-5.53v7.07h-4.55v-24.5h10.08
			C337.73,124.92,341.72,128.21,341.72,133.64z M337.13,133.64c0-3.08-2.07-4.87-6.06-4.87h-5.32v9.73h5.32
			C335.07,138.5,337.13,136.72,337.13,133.64z"/>
		<path class="st4" d="M378.44,143.75h-12.25l-2.42,5.67h-4.69l11.03-24.5h4.48l11.06,24.5h-4.76L378.44,143.75z M376.93,140.18
			l-4.62-10.71l-4.59,10.71H376.93z M373.19,122.92h-3.78l4.73-4.8h5.15L373.19,122.92z"/>
		<path class="st4" d="M422.65,136.89h4.3v9.77c-2.55,2.06-6.12,3.12-9.59,3.12c-7.6,0-13.2-5.29-13.2-12.6
			c0-7.32,5.6-12.6,13.27-12.6c4.1,0,7.53,1.37,9.84,3.99l-2.87,2.8c-1.93-1.93-4.13-2.8-6.76-2.8c-5.22,0-8.89,3.54-8.89,8.61
			c0,4.97,3.67,8.61,8.86,8.61c1.75,0,3.47-0.35,5.04-1.26V136.89z"/>
		<path class="st4" d="M450.44,124.92h4.55v24.5h-4.55V124.92z"/>
		<path class="st4" d="M500.88,124.92v24.5h-3.75l-13.51-16.59v16.59h-4.52v-24.5h3.75l13.51,16.59v-16.59H500.88z"/>
		<path class="st4" d="M540.85,143.75H528.6l-2.42,5.67h-4.69l11.03-24.5H537l11.06,24.5h-4.76L540.85,143.75z M539.35,140.18
			l-4.62-10.71l-4.59,10.71H539.35z"/>
		<path class="st4" d="M566.62,146.83l1.57-3.54c1.96,1.58,5.08,2.7,8.09,2.7c3.82,0,5.43-1.37,5.43-3.19
			c0-5.29-14.56-1.82-14.56-10.92c0-3.96,3.15-7.32,9.87-7.32c2.94,0,6.02,0.77,8.16,2.17l-1.44,3.54
			c-2.21-1.29-4.62-1.93-6.76-1.93c-3.78,0-5.32,1.47-5.32,3.33c0,5.22,14.53,1.82,14.53,10.82c0,3.92-3.19,7.28-9.91,7.28
			C572.46,149.77,568.65,148.58,566.62,146.83z"/>
	</g>
</g>
<g>
	<rect x="9.31" y="45.53" class="st4" width="20.5" height="6"/>
	<g>
		<g>
			<g>
				<path class="st4" d="M106.56,32.55c0.05-0.34,0.08-0.68,0.08-1.03c0-4.18-3.39-7.56-7.56-7.56c-4.18,0-7.56,3.39-7.56,7.56
					c0,0.6,0.08,1.18,0.21,1.75C96.66,32.98,101.61,32.73,106.56,32.55z"/>
			</g>
		</g>
	</g>
	<g>
		<g>
			<g>
				<path class="st4" d="M88.34,33.46c0.16-0.62,0.26-1.27,0.26-1.94c0-4.18-3.39-7.56-7.56-7.56c-4.18,0-7.56,3.39-7.56,7.56
					c0,0.95,0.18,1.86,0.5,2.69C78.77,34,83.55,33.74,88.34,33.46z"/>
			</g>
		</g>
	</g>
	<g>
		<g>
			<g>
				<path class="st4" d="M69.32,34.4c0.37-0.89,0.57-1.86,0.57-2.88c0-4.18-3.39-7.56-7.56-7.56c-4.18,0-7.56,3.39-7.56,7.56
					c0,1.1,0.24,2.13,0.66,3.07C60.06,34.65,64.69,34.56,69.32,34.4z"/>
			</g>
		</g>
	</g>
	<g>
		<g>
			<g>
				<g>
					<g>
						<g>
							<g>
								<g>
									<path class="st4" d="M131.77,11.24c-1.2-1.78-0.54-4.31,1.03-5.63c-3.74-1.82-7.9-2.85-12.25-2.85l-15.53,0
										c-23.53,0-47.07-0.01-70.6,0.02c-4.25,0.01-8.2,0.87-11.84,2.56c0.71,0.3,1.35,0.81,1.85,1.46
										c0.91,1.18,1.53,2.54,1.94,3.96c2.51-1,5.2-1.51,8.06-1.51C48.96,9.23,63.5,9.23,78.04,9.23c8.99,0,17.97,0,26.96,0
										l15.53,0c4.56,0,8.85,1.46,12.42,3.93C132.58,12.5,132.19,11.86,131.77,11.24z"/>
								</g>
							</g>
							<g>
								<g>
									<path class="st4" d="M142.78,33.63c1.04-0.28,2.13-0.45,3.29-0.45c1.07,0,2.14,0.17,3.18,0.46v-2.16
										c0-2.41-0.32-4.75-0.9-7c-0.95,1.14-2.45,1.77-4.31,1.22c-0.86-0.25-1.64-0.59-2.36-0.99c0.71,2.15,1.1,4.42,1.1,6.77
										V33.63z"/>
								</g>
							</g>
							<g>
								<g>
									<path class="st4" d="M7.29,124.69c0.1-0.13,0.21-0.25,0.33-0.37c1.31-1.31,3.72-1.71,5.36-0.73
										c-0.57-1.99-0.86-4.07-0.86-6.2l0-85.34c0-1.46,0.12-2.86,0.34-4.21c-1.24,0.61-2.69,0.71-3.96-0.16
										c-0.87-0.6-1.62-1.3-2.21-2.09c-0.43,2.06-0.66,4.21-0.66,6.46l0,85.34c0,2.39,0.29,4.74,0.85,7.01
										C6.77,124.47,7.03,124.57,7.29,124.69z"/>
								</g>
							</g>
							<g>
								<g>
									<path class="st4" d="M33.61,141.8c0-0.65,0.07-1.3,0.19-1.94c-2.31-0.08-4.56-0.49-6.68-1.24
										c0.22,1.42-0.26,3.01-1.22,3.97c-0.92,0.92-2.04,1.29-3.17,1.24c3.65,1.64,7.63,2.52,11.75,2.54
										C33.92,144.99,33.61,143.46,33.61,141.8z"/>
								</g>
							</g>
						</g>
					</g>
				</g>
			</g>
			<g>
				<g>
					<g>
						<path class="st4" d="M141.93,29.08c-8.02,0-14.54-6.52-14.54-14.54S133.91,0,141.93,0c8.02,0,14.54,6.52,14.54,14.54
							S149.95,29.08,141.93,29.08z M141.93,5.51c-4.98,0-9.03,4.05-9.03,9.03s4.05,9.03,9.03,9.03c4.98,0,9.03-4.05,9.03-9.03
							S146.91,5.51,141.93,5.51z"/>
					</g>
				</g>
			</g>
			<g>
				<g>
					<g>
						<path class="st4" d="M14.54,149.55C6.52,149.55,0,143.03,0,135.01c0-8.02,6.52-14.54,14.54-14.54
							c8.02,0,14.54,6.52,14.54,14.54C29.08,143.03,22.56,149.55,14.54,149.55z M14.54,125.98c-4.98,0-9.03,4.05-9.03,9.03
							c0,4.98,4.05,9.03,9.03,9.03s9.03-4.05,9.03-9.03C23.57,130.03,19.52,125.98,14.54,125.98z"/>
					</g>
				</g>
			</g>
			<g>
				<g>
					<g>
						<path class="st4" d="M14.54,29.08C6.52,29.08,0,22.56,0,14.54S6.52,0,14.54,0c8.02,0,14.54,6.52,14.54,14.54
							S22.56,29.08,14.54,29.08z M14.54,5.51c-4.98,0-9.03,4.05-9.03,9.03s4.05,9.03,9.03,9.03s9.03-4.05,9.03-9.03
							S19.52,5.51,14.54,5.51z"/>
					</g>
				</g>
			</g>
		</g>
	</g>
	<g>
		<g>
			<g>
				<g>
					<g>
						<g>
							<path class="st4" d="M158.41,38.95c-1.2-1.78-0.54-4.31,1.03-5.63c-3.74-1.82-7.9-2.85-12.25-2.85l-15.53,0
								c-23.53,0-47.07-0.01-70.6,0.02c-4.37,0.01-8.42,0.92-12.14,2.7c1.8-0.02,3.63,1.12,3.63,3.44v2.04
								c2.64-1.12,5.48-1.7,8.52-1.71c14.54-0.02,29.08-0.02,43.63-0.02c8.99,0,17.97,0,26.96,0l15.53,0
								c4.56,0,8.85,1.46,12.42,3.93C159.23,40.21,158.83,39.57,158.41,38.95z"/>
						</g>
					</g>
					<g>
						<g>
							<path class="st4" d="M169.42,63.99c0,27.11,0,54.22-0.01,81.34c0,2.26-0.33,4.42-0.97,6.47c0.23-0.19,0.46-0.37,0.7-0.56
								c1.83-1.48,4.33-1.82,6.16-0.07c0.39-1.89,0.59-3.83,0.59-5.84c0.01-27.11,0.01-54.23,0.01-81.34V59.2
								c0-2.41-0.32-4.75-0.9-7c-0.95,1.14-2.45,1.77-4.31,1.22c-0.86-0.25-1.64-0.59-2.36-0.99c0.71,2.15,1.1,4.42,1.1,6.77V63.99z
								"/>
						</g>
					</g>
					<g>
						<g>
							<path class="st4" d="M33.94,152.4c0.1-0.13,0.21-0.25,0.33-0.37c1.31-1.31,3.72-1.71,5.36-0.73
								c-0.57-1.99-0.86-4.07-0.86-6.2l0-85.34c0-1.46,0.12-2.86,0.34-4.21c-1.24,0.61-2.69,0.71-3.96-0.16
								c-0.87-0.6-1.62-1.3-2.21-2.09c-0.43,2.06-0.66,4.21-0.66,6.46l0,85.34c0,2.39,0.29,4.74,0.85,7.01
								C33.41,152.18,33.68,152.28,33.94,152.4z"/>
						</g>
					</g>
					<g>
						<g>
							<path class="st4" d="M159.17,164.01c0-0.02,0.01-0.04,0.02-0.06c-3.69,2.45-7.8,3.65-12.49,3.65l-85.43,0
								c-2.6,0-5.13-0.44-7.52-1.28c0.22,1.42-0.26,3-1.22,3.97c-0.92,0.92-2.04,1.29-3.17,1.24c3.69,1.66,7.73,2.54,11.91,2.54
								l85.42,0c5.78,0,11.05-1.52,15.71-4.51C160.17,169.01,158.63,166.31,159.17,164.01z"/>
						</g>
					</g>
				</g>
			</g>
		</g>
		<g>
			<g>
				<g>
					<circle class="st4" cx="124.1" cy="52.92" r="7.56"/>
				</g>
			</g>
		</g>
		<g>
			<g>
				<g>
					<circle class="st4" cx="106.07" cy="52.92" r="7.56"/>
				</g>
			</g>
		</g>
		<g>
			<g>
				<g>
					<circle class="st4" cx="87.36" cy="52.92" r="7.56"/>
				</g>
			</g>
		</g>
	</g>
	<g>
		<g>
			<g>
				<rect x="36.64" y="67.12" class="st4" width="136.03" height="7.65"/>
			</g>
		</g>
	</g>
	<g>
		<g>
			<g>
				<path class="st4" d="M54.92,86.01c-1.78,0-3.22,1.44-3.22,3.22v30.42c0,1.78,1.44,3.22,3.22,3.22h99.1
					c1.78,0,3.22-1.44,3.22-3.22V89.22c0-1.78-1.44-3.22-3.22-3.22h-35.1c-1.78,0-3.22,1.44-3.22,3.22s1.44,3.22,3.22,3.22h31.89
					v23.99H58.14V92.44h31.89c1.78,0,3.22-1.44,3.22-3.22s-1.44-3.22-3.22-3.22H54.92z"/>
			</g>
		</g>
	</g>
	<g>
		<g>
			<g>
				<path class="st4" d="M101.25,89.22c0,1.78,1.45,3.22,3.23,3.22s3.22-1.44,3.22-3.22c0-1.78-1.44-3.22-3.22-3.22h-0.02
					C102.68,86.01,101.25,87.45,101.25,89.22z"/>
			</g>
		</g>
	</g>
	<g>
		<g>
			<g>
				<rect x="51.7" y="132.01" class="st4" width="103.59" height="7.65"/>
			</g>
		</g>
	</g>
	<g>
		<g>
			<g>
				<path class="st4" d="M168.58,177.26c-8.02,0-14.54-6.52-14.54-14.54c0-8.02,6.52-14.54,14.54-14.54
					c8.02,0,14.54,6.52,14.54,14.54C183.12,170.74,176.6,177.26,168.58,177.26z M168.58,153.69c-4.98,0-9.03,4.05-9.03,9.03
					s4.05,9.03,9.03,9.03c4.98,0,9.03-4.05,9.03-9.03S173.56,153.69,168.58,153.69z"/>
			</g>
		</g>
	</g>
	<g>
		<g>
			<g>
				<path class="st4" d="M168.58,56.79c-8.02,0-14.54-6.52-14.54-14.54s6.52-14.54,14.54-14.54c8.02,0,14.54,6.52,14.54,14.54
					S176.6,56.79,168.58,56.79z M168.58,33.22c-4.98,0-9.03,4.05-9.03,9.03s4.05,9.03,9.03,9.03c4.98,0,9.03-4.05,9.03-9.03
					S173.56,33.22,168.58,33.22z"/>
			</g>
		</g>
	</g>
	<g>
		<g>
			<g>
				<path class="st4" d="M41.19,177.26c-8.02,0-14.54-6.52-14.54-14.54c0-8.02,6.52-14.54,14.54-14.54
					c8.02,0,14.54,6.52,14.54,14.54C55.73,170.74,49.2,177.26,41.19,177.26z M41.19,153.69c-4.98,0-9.03,4.05-9.03,9.03
					s4.05,9.03,9.03,9.03s9.03-4.05,9.03-9.03S46.17,153.69,41.19,153.69z"/>
			</g>
		</g>
	</g>
	<g>
		<g>
			<g>
				<path class="st4" d="M41.19,56.79c-8.02,0-14.54-6.52-14.54-14.54s6.52-14.54,14.54-14.54c8.02,0,14.54,6.52,14.54,14.54
					S49.2,56.79,41.19,56.79z M41.19,33.22c-4.98,0-9.03,4.05-9.03,9.03s4.05,9.03,9.03,9.03s9.03-4.05,9.03-9.03
					S46.17,33.22,41.19,33.22z"/>
			</g>
		</g>
	</g>
</g>
</svg>
