<svg enable-background="new 0 0 512 512" viewBox="0 0 512 512" xmlns="http://www.w3.org/2000/svg"><path d="m422.957 177.875h-333.914c-27.619 0-50.087 22.468-50.087 50.087v183.652h434.087v-183.652c0-27.62-22.467-50.087-50.086-50.087z" fill="#ffefd9"/><path d="m422.957 177.875h-166.957v233.739h217.043v-183.652c0-27.62-22.467-50.087-50.086-50.087z" fill="#ffd9b3"/><path d="m38.957 378.223v33.391 50.087c0 9.223 7.479 16.696 16.696 16.696h400.696c9.217 0 16.696-7.473 16.696-16.696v-50.087-33.391z" fill="#a6673a"/><path d="m256 478.397h200.348c9.217 0 16.696-7.473 16.696-16.696v-50.087-33.391h-217.044z" fill="#99522e"/><path d="m456.348 511.788h-400.696c-30.735 0-55.652-24.916-55.652-55.652 0-6.147 4.983-11.13 11.13-11.13h489.74c6.147 0 11.13 4.983 11.13 11.13 0 30.736-24.917 55.652-55.652 55.652z" fill="#ffc033"/><path d="m500.87 445.006h-244.87v66.783h200.348c30.737 0 55.652-24.917 55.652-55.652 0-6.149-4.984-11.131-11.13-11.131z" fill="#f9a926"/><path d="m322.783 122.223h-20.52c25.371-21.421 42.662-39.506 42.662-66.543 0-31.103-23.196-55.467-52.815-55.467-15.728 0-27.598 6.685-36.108 15.386-8.511-8.702-20.382-15.387-36.109-15.387-29.619 0-52.815 24.365-52.815 55.467 0 27.037 17.291 45.123 42.662 66.543h-20.521c-27.619 0-50.087 22.468-50.087 50.087v22.261c0 9.223 7.479 16.696 16.696 16.696h200.348c9.217 0 16.696-7.473 16.696-16.696v-22.261c-.002-27.619-22.47-50.086-50.089-50.086zm-102.891-88.62c14.173 0 19.761 17.87 20.065 18.864 2.055 7.152 8.598 12.087 16.043 12.087 7.49 0 14.054-4.984 16.076-12.196.055-.185 5.652-18.756 20.033-18.756 12.75 0 19.424 11.104 19.424 22.076 0 15.146-14.239 27.532-43.881 51.897-3.729 3.071-7.62 6.266-11.652 9.63-4.033-3.364-7.924-6.56-11.652-9.63-29.641-24.365-43.881-36.75-43.881-51.897 0-10.971 6.675-22.075 19.425-22.075z" fill="#a6673a"/><path d="m272.076 52.359c.055-.185 5.652-18.756 20.033-18.756 12.75 0 19.424 11.104 19.424 22.076 0 15.146-14.239 27.532-43.881 51.897-3.729 3.071-7.62 6.266-11.652 9.63v94.06h100.174c9.217 0 16.696-7.473 16.696-16.696v-22.261c0-27.619-22.468-50.087-50.087-50.087h-20.52c25.371-21.421 42.662-39.506 42.662-66.543 0-31.103-23.196-55.467-52.815-55.467-15.728 0-27.598 6.685-36.108 15.386v48.956c7.488 0 14.052-4.983 16.074-12.195z" fill="#99522e"/><path d="m422.957 177.875h-333.914c-27.619 0-50.087 22.468-50.087 50.087v33.391c0 21.737 14 40.096 33.391 47.01 5.247 1.871 10.812 3.076 16.696 3.076 12.816 0 24.521-4.837 33.391-12.782 8.87 7.946 20.576 12.782 33.391 12.782s24.521-4.837 33.391-12.782c8.87 7.946 20.576 12.782 33.391 12.782 12.816 0 24.521-4.837 33.391-12.782 8.87 7.946 20.576 12.782 33.391 12.782s24.521-4.837 33.391-12.782c8.87 7.946 20.576 12.782 33.391 12.782 12.816 0 24.521-4.837 33.391-12.782 8.87 7.946 20.576 12.782 33.391 12.782 5.884 0 11.449-1.205 16.696-3.076 19.391-6.914 33.391-25.273 33.391-47.01v-33.391c.003-27.62-22.464-50.087-50.083-50.087z" fill="#e6563a"/><path d="m422.957 177.875h-166.957v120.783c8.87 7.946 20.576 12.782 33.391 12.782s24.521-4.837 33.391-12.782c8.87 7.946 20.576 12.782 33.391 12.782 12.816 0 24.521-4.837 33.391-12.782 8.87 7.946 20.576 12.782 33.391 12.782 5.884 0 11.449-1.205 16.696-3.076 19.391-6.914 33.391-25.273 33.391-47.01v-33.391c.001-27.621-22.466-50.088-50.085-50.088z" fill="#d9472b"/></svg>