<svg enable-background="new 0 0 460 460" viewBox="0 0 460 460" xmlns="http://www.w3.org/2000/svg"><path d="m230 0c-127.026 0-230 102.975-230 230s102.974 230 230 230c5.514 0 10.982-.194 16.399-.575l206.802-285.159c-24.913-100.095-115.395-174.266-223.201-174.266z" fill="#c2fbff"/><path d="m246.398 459.412c119.371-8.411 213.602-107.901 213.602-229.412 0-19.219-2.372-37.882-6.813-55.726l-71.197-71.197-125.843 103.777-103.777-103.777-80.193 6.193 35.415 35.416-5.415 170.584z" fill="#71e2f0"/><path d="m181.205 362.77 7.5 27.5c15.188 0 27.5-12.312 27.5-27.5s-12.312-27.5-27.5-27.5z" fill="#121149"/><path d="m161.205 362.77c0 15.188 12.312 27.5 27.5 27.5v-55c-15.188 0-27.5 12.312-27.5 27.5z" fill="#273b7a"/><path d="m327.785 362.77 7.5 27.5c15.188 0 27.5-12.312 27.5-27.5s-12.312-27.5-27.5-27.5z" fill="#121149"/><path d="m307.785 362.77c0 15.188 12.312 27.5 27.5 27.5v-55c-15.188 0-27.5 12.312-27.5 27.5z" fill="#273b7a"/><path d="m381.99 103.077v202.193h-115.305l15.391-192.193 20.007-10.001z" fill="#d48b07"/><path d="m282.076 113.077v192.193h-99.899v-202.193l79.906-.001z" fill="#ffc61b"/><path d="m262.083 103.076h40v60h-40z" fill="#fff"/><path d="m421.813 315.27h-319.636v-216h20v196h20l10-10 10 10h259.636z" fill="#121149"/><path d="m162.177 295.27h-20v-166c0-11.028-8.972-20-20-20h-50v-20h50c22.056 0 40 17.944 40 40z" fill="#273b7a"/></svg>