<svg enable-background="new 0 0 492.8 492.8" viewBox="0 0 492.8 492.8" xmlns="http://www.w3.org/2000/svg"><path d="m240.8 1.6h252v489.6h-252z" fill="#3cc676"/><path d="m276.8 38.4h180v416h-180z" fill="#0aa06e"/><path d="m276.8 38.4h180v416" fill="#078457"/><circle cx="366.4" cy="239.2" fill="#fff6e1" r="114.4"/><path d="m366.4 124c63.2 0 114.4 51.2 114.4 114.4s-51.2 115.2-114.4 115.2" fill="#ffeebd"/><path d="m472 248h-25.6c0 15.2-4.8 30.4-11.2 39.2l-17.6-6.4c6.4-9.6 11.2-22.4 11.2-36.8 0-18.4-10.4-30.4-25.6-30.4-14.4 0-23.2 10.4-30.4 28.8-10.4 26.4-22.4 42.4-44.8 42.4-21.6 0-37.6-15.2-41.6-39.2h-25.6v-16h24.8c.8-15.2 4.8-26.4 8.8-33.6l16.8 6.4c-3.2 5.6-8.8 16-8.8 32.8 0 20 12 27.2 22.4 27.2 13.6 0 20-9.6 29.6-32 11.2-26.4 24-40 47.2-40 20 0 39.2 14.4 44 40.8h26.4z" fill="#ffc114"/><path d="m365.6 209.6v48c2.4-4.8 4.8-9.6 7.2-16 8-19.2 16.8-28.8 30.4-28.8 14.4 0 25.6 12 25.6 30.4 0 14.4-4.8 28-11.2 36.8l17.6 6.4c6.4-8.8 11.2-24.8 11.2-39.2h25.6v-16h-26.4c-4-26.4-23.2-40.8-44-40.8-16 .8-27.2 7.2-36 19.2z" fill="#ff8a15"/><path d="m292 424.8v-27.2h-44c-26.4-7.2-61.6-12-100.8-12s-76 4.8-101.6 12h-44.8v27.2c0 .8-.8 1.6-.8 3.2 0 23.2 65.6 41.6 145.6 41.6 80.8 0 145.6-18.4 145.6-41.6.8-1.6.8-2.4.8-3.2z" fill="#d18307"/><ellipse cx="146.4" cy="401.6" fill="#f2b233" rx="145.6" ry="41.6"/><path d="m146.4 360c80.8 0 145.6 18.4 145.6 41.6s-65.6 41.6-145.6 41.6" fill="#dd981d"/><ellipse cx="146.4" cy="394.4" fill="#f2b233" rx="92.8" ry="24.8"/><path d="m146.4 419.2c-51.2 0-92.8-11.2-92.8-24.8s41.6-24.8 92.8-24.8" fill="#f9db7a"/><ellipse cx="102.372" cy="385.649" fill="#ffeebd" rx="6.4" ry="31.201" transform="matrix(-.1226 -.9925 .9925 -.1226 -267.8181 534.5266)"/><g fill="#f2b233"><path d="m10.4 416.8v26.4c2.4 1.6 4.8 3.2 8 4.8v-26.4c-3.2-1.6-5.6-3.2-8-4.8z"/><path d="m43.2 431.2v26.4c2.4.8 4.8 1.6 8 2.4v-26.4c-2.4-.8-5.6-1.6-8-2.4z"/><path d="m76.8 438.4v26.4c2.4 0 4.8.8 8 .8v-26.4c-3.2 0-5.6-.8-8-.8z"/><path d="m109.6 441.6v26.4c2.4 0 4.8 0 8 .8v-26.4c-3.2 0-5.6 0-8-.8z"/><path d="m146.4 443.2c-1.6 0-2.4 0-4 0v26.4h4s2.4 0 4 0v-26.4c-1.6 0-2.4 0-4 0z"/><path d="m175.2 442.4v26.4c2.4 0 4.8 0 8-.8v-26.4c-2.4.8-4.8.8-8 .8z"/><path d="m208.8 439.2v26.4c2.4 0 5.6-.8 8-.8v-26.4c-3.2 0-5.6.8-8 .8z"/><path d="m241.6 432.8v26.4c2.4-.8 5.6-1.6 8-2.4v-26.4c-3.2 1.6-5.6 2.4-8 2.4z"/><path d="m274.4 421.6v26.4c3.2-1.6 5.6-3.2 8-4.8v-26.4c-2.4 1.6-4.8 3.2-8 4.8z"/></g><path d="m292 342.4v-27.2h-44c-26.4-7.2-61.6-12-100.8-12s-75.2 4.8-100.8 12h-45.6v27.2c0 .8-.8 1.6-.8 3.2 0 23.2 65.6 41.6 145.6 41.6 80.8 0 145.6-18.4 145.6-41.6.8-.8.8-2.4.8-3.2z" fill="#d18307"/><ellipse cx="146.4" cy="319.2" fill="#f2b233" rx="145.6" ry="41.6"/><path d="m146.4 277.6c80.8 0 145.6 18.4 145.6 41.6s-65.6 41.6-145.6 41.6" fill="#dd981d"/><ellipse cx="146.4" cy="312" fill="#f2b233" rx="92.8" ry="24.8"/><path d="m146.4 336.8c-51.2 0-92.8-11.2-92.8-24.8s41.6-24.8 92.8-24.8" fill="#f9db7a"/><ellipse cx="102.357" cy="303.283" fill="#ffeebd" rx="6.4" ry="31.201" transform="matrix(-.1226 -.9925 .9925 -.1226 -186.0893 442.0488)"/><path d="m10.4 334.4v26.4c2.4 1.6 4.8 3.2 8 4.8v-26.4c-3.2-1.6-5.6-3.2-8-4.8z" fill="#f2b233"/><path d="m43.2 348.8v26.4c2.4.8 4.8 1.6 8 2.4v-26.4c-2.4-.8-5.6-1.6-8-2.4z" fill="#f2b233"/><path d="m76.8 356v26.4c2.4 0 4.8.8 8 .8v-26.4c-3.2 0-5.6-.8-8-.8z" fill="#f2b233"/><path d="m109.6 359.2v26.4c2.4 0 4.8 0 8 .8v-26.4c-3.2 0-5.6 0-8-.8z" fill="#f2b233"/><path d="m146.4 360.8c-1.6 0-2.4 0-4 0v26.4h4s2.4 0 4 0v-26.4c-1.6 0-2.4 0-4 0z" fill="#f2b233"/><path d="m175.2 360v26.4c2.4 0 4.8 0 8-.8v-26.4c-2.4.8-4.8.8-8 .8z" fill="#f2b233"/><path d="m208.8 356.8v26.4c2.4 0 5.6-.8 8-.8v-26.4c-3.2 0-5.6.8-8 .8z" fill="#f2b233"/><path d="m241.6 351.2v26.4c2.4-.8 5.6-1.6 8-2.4v-26.4c-3.2.8-5.6 1.6-8 2.4z" fill="#f2b233"/><path d="m274.4 339.2v26.4c3.2-1.6 5.6-3.2 8-4.8v-26.4c-2.4 1.6-4.8 3.2-8 4.8z" fill="#f2b233"/><path d="m292 260v-27.2h-44c-26.4-7.2-61.6-12-100.8-12s-75.2 4.8-100.8 12h-45.6v27.2c0 .8-.8 1.6-.8 3.2 0 23.2 65.6 41.6 145.6 41.6 80.8 0 145.6-18.4 145.6-41.6.8-.8.8-2.4.8-3.2z" fill="#d18307"/><ellipse cx="146.4" cy="236.8" fill="#f2b233" rx="145.6" ry="41.6"/><path d="m146.4 195.2c80.8 0 145.6 18.4 145.6 41.6s-65.6 41.6-145.6 41.6" fill="#dd981d"/><ellipse cx="146.4" cy="229.6" fill="#f2b233" rx="92.8" ry="24.8"/><path d="m146.4 254.4c-51.2 0-92.8-11.2-92.8-24.8s41.6-24.8 92.8-24.8" fill="#f9db7a"/><ellipse cx="102.449" cy="221.639" fill="#ffeebd" rx="6.4" ry="31.201" transform="matrix(-.1226 -.9925 .9925 -.1226 -104.9581 350.4868)"/><path d="m10.4 252v26.4c2.4 1.6 4.8 3.2 8 4.8v-26.4c-3.2-1.6-5.6-3.2-8-4.8z" fill="#f2b233"/><path d="m43.2 266.4v26.4c2.4.8 4.8 1.6 8 2.4v-26.4c-2.4-.8-5.6-1.6-8-2.4z" fill="#f2b233"/><path d="m76.8 273.6v26.4c2.4 0 4.8.8 8 .8v-26.4c-3.2 0-5.6-.8-8-.8z" fill="#f2b233"/><path d="m109.6 277.6v26.4c2.4 0 4.8 0 8 .8v-26.4c-3.2-.8-5.6-.8-8-.8z" fill="#f2b233"/><path d="m146.4 278.4c-1.6 0-2.4 0-4 0v26.4h4s2.4 0 4 0v-26.4c-1.6 0-2.4 0-4 0z" fill="#f2b233"/><path d="m175.2 277.6v26.4c2.4 0 4.8 0 8-.8v-26.4c-2.4.8-4.8.8-8 .8z" fill="#f2b233"/><path d="m208.8 274.4v26.4c2.4 0 5.6-.8 8-.8v-26.4c-3.2 0-5.6.8-8 .8z" fill="#f2b233"/><path d="m241.6 268.8v25.6c2.4-.8 5.6-1.6 8-2.4v-26.4c-3.2 1.6-5.6 2.4-8 3.2z" fill="#f2b233"/><path d="m274.4 256.8v26.4c3.2-1.6 5.6-3.2 8-4.8v-26.4c-2.4 1.6-4.8 3.2-8 4.8z" fill="#f2b233"/></svg>